# Blender 5.1.1
# www.blender.org
mtllib Untitled.mtl
o Cube
v 1.000000 1.000000 -1.000000
v 1.000000 -1.000000 -1.000000
v 0.983009 1.031552 0.917814
v 1.000000 -1.000000 1.000000
v -1.000000 1.000000 -1.000000
v -1.000000 -1.000000 -1.000000
v -1.000000 1.000000 1.000000
v -1.000000 -1.000000 1.000000
v -0.198725 1.016748 0.018001
v -0.198725 2.411677 -0.004948
v -0.198725 1.013941 -0.152617
v -0.198725 2.408870 -0.175566
v 0.020164 1.016748 0.018001
v 0.020164 2.411677 -0.004948
v 0.020164 1.013941 -0.152617
v 0.020164 2.408870 -0.175566
v -0.622041 1.006014 0.640889
v -0.632400 1.657111 0.640889
v -0.622041 1.006014 0.572296
v -0.632400 1.657111 0.572296
v -0.509537 1.007804 0.640889
v -0.519896 1.658901 0.640889
v -0.509537 1.007804 0.572296
v -0.519896 1.658901 0.572296
v -0.359230 1.010195 0.710254
v -0.362709 1.228872 0.710254
v -0.359230 1.010195 0.481071
v -0.362709 1.228872 0.481071
v 0.188144 1.018905 0.710254
v 0.184665 1.237581 0.710254
v 0.188144 1.018905 0.481071
v 0.184665 1.237581 0.481071
v -0.514078 1.007732 0.357910
v -0.522652 1.546586 0.357910
v -0.514078 1.007732 0.193609
v -0.522652 1.546586 0.193609
v -0.347399 1.010384 0.357910
v -0.355972 1.549238 0.357910
v -0.347399 1.010384 0.193609
v -0.355972 1.549238 0.193609
v -0.699529 1.004781 0.063174
v -0.705059 1.352302 0.063174
v -0.699529 1.004781 -0.205077
v -0.705059 1.352302 -0.205077
v -0.305752 1.011046 0.063174
v -0.311281 1.358567 0.063174
v -0.305752 1.011046 -0.205077
v -0.311281 1.358567 -0.205077
v 0.171967 1.015953 -0.030307
v 0.171967 1.240271 -0.033997
v 0.171967 1.011153 -0.322061
v 0.171967 1.235471 -0.325751
v 0.513488 1.015953 -0.030307
v 0.513488 1.240271 -0.033997
v 0.513488 1.011153 -0.322061
v 0.513488 1.235471 -0.325751
v -0.429499 1.007341 -0.553804
v -0.429499 1.271129 -0.558144
v -0.429499 1.003311 -0.798727
v -0.429499 1.267100 -0.803067
v 0.325834 1.007341 -0.553804
v 0.325834 1.271129 -0.558144
v 0.325834 1.003311 -0.798727
v 0.325834 1.267100 -0.803067
v -0.166950 1.013255 0.307854
v -0.189341 2.420528 0.307854
v -0.166950 1.013255 0.108445
v -0.189341 2.420528 0.108445
v 0.068606 1.017003 0.307854
v 0.046215 2.424276 0.307854
v 0.068606 1.017003 0.108445
v 0.046215 2.424276 0.108445
v 0.444121 1.022979 0.585382
v 0.438425 1.380984 0.585382
v 0.444121 1.022979 0.092493
v 0.438425 1.380984 0.092493
v 0.676859 1.026682 0.585382
v 0.671163 1.384687 0.585382
v 0.676859 1.026682 0.092493
v 0.671163 1.384687 0.092493
vn -0.0000 0.9999 -0.0164
vn -0.0000 0.0404 0.9992
vn -1.0000 -0.0000 -0.0000
vn -0.0000 -1.0000 -0.0000
vn 1.0000 -0.0000 -0.0000
vn -0.0000 -0.0000 -1.0000
vn -0.0159 0.9999 -0.0000
vn 0.0414 -0.0000 0.9991
vn 0.9999 0.0087 0.0087
vn -0.0000 -0.0164 -0.9999
vn -0.0000 0.0164 0.9999
vn -0.0000 -0.9999 0.0164
vn -0.9999 -0.0159 -0.0000
vn 0.9999 0.0159 -0.0000
vn -0.0000 -0.0000 1.0000
vn 0.0159 -0.9999 -0.0000
vt 0.875000 0.500000
vt 0.625000 0.750000
vt 0.625000 0.500000
vt 0.375000 1.000000
vt 0.375000 0.750000
vt 0.625000 0.000000
vt 0.375000 0.250000
vt 0.375000 0.000000
vt 0.375000 0.500000
vt 0.125000 0.750000
vt 0.125000 0.500000
vt 0.625000 0.250000
vt 0.875000 0.750000
vt 0.625000 1.000000
s 0
usemtl Material
f 5/1/1 3/2/1 1/3/1
f 3/2/2 8/4/2 4/5/2
f 7/6/3 6/7/3 8/8/3
f 2/9/4 8/10/4 6/11/4
f 1/3/5 4/5/5 2/9/5
f 5/12/6 2/9/6 6/7/6
f 5/1/7 7/13/7 3/2/7
f 3/2/8 7/14/8 8/4/8
f 7/6/3 5/12/3 6/7/3
f 2/9/4 4/5/4 8/10/4
f 1/3/9 3/2/9 4/5/9
f 5/12/6 1/3/6 2/9/6
f 10/6/3 11/7/3 9/8/3
f 12/12/10 15/9/10 11/7/10
f 16/3/5 13/5/5 15/9/5
f 14/2/11 9/4/11 13/5/11
f 15/9/12 9/10/12 11/11/12
f 12/1/1 14/2/1 16/3/1
f 18/6/13 19/7/13 17/8/13
f 20/12/6 23/9/6 19/7/6
f 24/3/14 21/5/14 23/9/14
f 22/2/15 17/4/15 21/5/15
f 23/9/16 17/10/16 19/11/16
f 20/1/7 22/2/7 24/3/7
f 26/6/13 27/7/13 25/8/13
f 28/12/6 31/9/6 27/7/6
f 32/3/14 29/5/14 31/9/14
f 30/2/15 25/4/15 29/5/15
f 31/9/16 25/10/16 27/11/16
f 28/1/7 30/2/7 32/3/7
f 34/6/13 35/7/13 33/8/13
f 36/12/6 39/9/6 35/7/6
f 40/3/14 37/5/14 39/9/14
f 38/2/15 33/4/15 37/5/15
f 39/9/16 33/10/16 35/11/16
f 36/1/7 38/2/7 40/3/7
f 42/6/13 43/7/13 41/8/13
f 44/12/6 47/9/6 43/7/6
f 48/3/14 45/5/14 47/9/14
f 46/2/15 41/4/15 45/5/15
f 47/9/16 41/10/16 43/11/16
f 44/1/7 46/2/7 48/3/7
f 50/6/3 51/7/3 49/8/3
f 52/12/10 55/9/10 51/7/10
f 56/3/5 53/5/5 55/9/5
f 54/2/11 49/4/11 53/5/11
f 55/9/12 49/10/12 51/11/12
f 52/1/1 54/2/1 56/3/1
f 57/8/3 60/12/3 59/7/3
f 60/12/10 63/9/10 59/7/10
f 64/3/5 61/5/5 63/9/5
f 62/2/11 57/4/11 61/5/11
f 63/9/12 57/10/12 59/11/12
f 60/1/1 62/2/1 64/3/1
f 66/6/13 67/7/13 65/8/13
f 68/12/6 71/9/6 67/7/6
f 72/3/14 69/5/14 71/9/14
f 70/2/15 65/4/15 69/5/15
f 71/9/16 65/10/16 67/11/16
f 68/1/7 70/2/7 72/3/7
f 74/6/13 75/7/13 73/8/13
f 75/7/6 80/3/6 79/9/6
f 80/3/14 77/5/14 79/9/14
f 78/2/15 73/4/15 77/5/15
f 79/9/16 73/10/16 75/11/16
f 76/1/7 78/2/7 80/3/7
f 10/6/3 12/12/3 11/7/3
f 12/12/10 16/3/10 15/9/10
f 16/3/5 14/2/5 13/5/5
f 14/2/11 10/14/11 9/4/11
f 15/9/12 13/5/12 9/10/12
f 12/1/1 10/13/1 14/2/1
f 18/6/13 20/12/13 19/7/13
f 20/12/6 24/3/6 23/9/6
f 24/3/14 22/2/14 21/5/14
f 22/2/15 18/14/15 17/4/15
f 23/9/16 21/5/16 17/10/16
f 20/1/7 18/13/7 22/2/7
f 26/6/13 28/12/13 27/7/13
f 28/12/6 32/3/6 31/9/6
f 32/3/14 30/2/14 29/5/14
f 30/2/15 26/14/15 25/4/15
f 31/9/16 29/5/16 25/10/16
f 28/1/7 26/13/7 30/2/7
f 34/6/13 36/12/13 35/7/13
f 36/12/6 40/3/6 39/9/6
f 40/3/14 38/2/14 37/5/14
f 38/2/15 34/14/15 33/4/15
f 39/9/16 37/5/16 33/10/16
f 36/1/7 34/13/7 38/2/7
f 42/6/13 44/12/13 43/7/13
f 44/12/6 48/3/6 47/9/6
f 48/3/14 46/2/14 45/5/14
f 46/2/15 42/14/15 41/4/15
f 47/9/16 45/5/16 41/10/16
f 44/1/7 42/13/7 46/2/7
f 50/6/3 52/12/3 51/7/3
f 52/12/10 56/3/10 55/9/10
f 56/3/5 54/2/5 53/5/5
f 54/2/11 50/14/11 49/4/11
f 55/9/12 53/5/12 49/10/12
f 52/1/1 50/13/1 54/2/1
f 57/8/3 58/6/3 60/12/3
f 60/12/10 64/3/10 63/9/10
f 64/3/5 62/2/5 61/5/5
f 62/2/11 58/14/11 57/4/11
f 63/9/12 61/5/12 57/10/12
f 60/1/1 58/13/1 62/2/1
f 66/6/13 68/12/13 67/7/13
f 68/12/6 72/3/6 71/9/6
f 72/3/14 70/2/14 69/5/14
f 70/2/15 66/14/15 65/4/15
f 71/9/16 69/5/16 65/10/16
f 68/1/7 66/13/7 70/2/7
f 74/6/13 76/12/13 75/7/13
f 75/7/6 76/12/6 80/3/6
f 80/3/14 78/2/14 77/5/14
f 78/2/15 74/14/15 73/4/15
f 79/9/16 77/5/16 73/10/16
f 76/1/7 74/13/7 78/2/7
