<svg xmlns="http://www.w3.org/2000/svg" xmlns:xlink="http://www.w3.org/1999/xlink" contentStyleType="text/css" data-diagram-type="CLASS" height="620px" preserveAspectRatio="none" style="width:1286px;height:620px;background:#FFFFFF;" version="1.1" viewBox="0 0 1286 620" width="1286.25px" zoomAndPan="magnify"><?plantuml 1.2026.3?><defs/><g><!--cluster RayTracer--><g class="cluster" data-qualified-name="RayTracer" data-source-line="29" id="ent0004"><path d="M10.625,7.5 L111.8164,7.5 A4.6875,4.6875 0 0 1 114.9414,10.625 L123.6914,35.3711 L1264.375,35.3711 A3.125,3.125 0 0 1 1267.5,38.4961 L1267.5,260.625 A3.125,3.125 0 0 1 1264.375,263.75 L10.625,263.75 A3.125,3.125 0 0 1 7.5,260.625 L7.5,10.625 A3.125,3.125 0 0 1 10.625,7.5" fill="none" style="stroke:#000000;stroke-width:1.875;"/><line style="stroke:#000000;stroke-width:1.875;" x1="7.5" x2="123.6914" y1="35.3711" y2="35.3711"/><text fill="#000000" font-family="sans-serif" font-size="17.5" font-weight="700" lengthAdjust="spacing" textLength="99.9414" x="12.5" y="26.2439">RayTracer</text></g><!--class Renderer--><g class="entity" data-qualified-name="RayTracer.Renderer" data-source-line="30" id="ent0005"><rect fill="#F1F1F1" height="192.5977" rx="3.125" ry="3.125" style="stroke:#181818;stroke-width:0.625;" width="1220.3125" x="27.5" y="51.25"/><ellipse cx="591.8195" cy="71.25" fill="#ADD1B2" rx="13.75" ry="13.75" style="stroke:#181818;stroke-width:1.25;"/><path d="M595.5304,78.3008 Q594.8077,78.6719 594.007,78.8477 Q593.2062,79.043 592.3273,79.043 Q589.2023,79.043 587.5421,76.9922 Q585.9015,74.9219 585.9015,71.0156 Q585.9015,67.1094 587.5421,65.0391 Q589.2023,62.9688 592.3273,62.9688 Q593.2062,62.9688 594.007,63.1641 Q594.8273,63.3594 595.5304,63.7305 L595.5304,67.1289 Q594.7491,66.4063 594.007,66.0742 Q593.2648,65.7227 592.4835,65.7227 Q590.8038,65.7227 589.9445,67.0703 Q589.0851,68.3984 589.0851,71.0156 Q589.0851,73.6328 589.9445,74.9805 Q590.8038,76.3086 592.4835,76.3086 Q593.2648,76.3086 594.007,75.9766 Q594.7491,75.625 595.5304,74.9023 L595.5304,78.3008 Z " fill="#000000"/><text fill="#000000" font-family="sans-serif" font-size="17.5" lengthAdjust="spacing" textLength="81.0486" x="617.4445" y="77.3083">Renderer</text><line style="stroke:#181818;stroke-width:0.625;" x1="28.75" x2="1246.5625" y1="91.25" y2="91.25"/><text fill="#000000" font-family="sans-serif" font-size="17.5" lengthAdjust="spacing" textLength="109.3665" x="35" y="112.4939">+Renderer()</text><text fill="#000000" font-family="sans-serif" font-size="17.5" lengthAdjust="spacing" textLength="262.5854" x="35" y="132.865">+Renderer(const Renderer &amp;)</text><text fill="#000000" font-family="sans-serif" font-size="17.5" lengthAdjust="spacing" textLength="124.0295" x="35" y="153.2361">+~Renderer()</text><text fill="#000000" font-family="sans-serif" font-size="17.5" lengthAdjust="spacing" textLength="1205.3125" x="35" y="173.6072">-traceRay(const Ray&amp; ray, const Scene&amp; scene, const BVHNode* bvh, const std::vector&lt;const IPrimitive*&gt;&amp; unbounded) : Color {query}</text><text fill="#000000" font-family="sans-serif" font-size="17.5" lengthAdjust="spacing" textLength="383.1799" x="35" y="193.9783">+operator=(const Renderer &amp;) : Renderer&amp;</text><text fill="#000000" font-family="sans-serif" font-size="17.5" lengthAdjust="spacing" text-decoration="underline" textLength="224.7827" x="35" y="214.3494">-toChannel(double v) : int</text><text fill="#000000" font-family="sans-serif" font-size="17.5" lengthAdjust="spacing" textLength="566.0242" x="35" y="234.7205">+render(const Scene&amp; scene, std::ostream&amp; out) : void {query}</text></g><!--class Help--><g class="entity" data-qualified-name="Help" data-source-line="15" id="ent0002"><rect fill="#F1F1F1" height="70.3711" rx="3.125" ry="3.125" style="stroke:#181818;stroke-width:0.625;" width="164.1687" x="555.625" y="531.25"/><ellipse cx="612.4487" cy="551.25" fill="#ADD1B2" rx="13.75" ry="13.75" style="stroke:#181818;stroke-width:1.25;"/><path d="M616.1597,558.3008 Q615.437,558.6719 614.6362,558.8477 Q613.8354,559.043 612.9565,559.043 Q609.8315,559.043 608.1714,556.9922 Q606.5308,554.9219 606.5308,551.0156 Q606.5308,547.1094 608.1714,545.0391 Q609.8315,542.9688 612.9565,542.9688 Q613.8354,542.9688 614.6362,543.1641 Q615.4565,543.3594 616.1597,543.7305 L616.1597,547.1289 Q615.3784,546.4063 614.6362,546.0742 Q613.894,545.7227 613.1128,545.7227 Q611.4331,545.7227 610.5737,547.0703 Q609.7144,548.3984 609.7144,551.0156 Q609.7144,553.6328 610.5737,554.9805 Q611.4331,556.3086 613.1128,556.3086 Q613.894,556.3086 614.6362,555.9766 Q615.3784,555.625 616.1597,554.9023 L616.1597,558.3008 Z " fill="#000000"/><text fill="#000000" font-family="sans-serif" font-size="17.5" lengthAdjust="spacing" textLength="39.8962" x="638.0737" y="557.3083">Help</text><line style="stroke:#181818;stroke-width:0.625;" x1="556.875" x2="718.5437" y1="571.25" y2="571.25"/><text fill="#000000" font-family="sans-serif" font-size="17.5" lengthAdjust="spacing" text-decoration="underline" textLength="149.1687" x="563.125" y="592.4939">+printHelp() : int</text></g><!--class Parser--><g class="entity" data-qualified-name="Parser" data-source-line="20" id="ent0003"><rect fill="#F1F1F1" height="161.8555" rx="3.125" ry="3.125" style="stroke:#181818;stroke-width:0.625;" width="376.8091" x="449.375" y="306.875"/><ellipse cx="604.6918" cy="326.875" fill="#ADD1B2" rx="13.75" ry="13.75" style="stroke:#181818;stroke-width:1.25;"/><path d="M608.4027,333.9258 Q607.6801,334.2969 606.8793,334.4727 Q606.0785,334.668 605.1996,334.668 Q602.0746,334.668 600.4144,332.6172 Q598.7738,330.5469 598.7738,326.6406 Q598.7738,322.7344 600.4144,320.6641 Q602.0746,318.5938 605.1996,318.5938 Q606.0785,318.5938 606.8793,318.7891 Q607.6996,318.9844 608.4027,319.3555 L608.4027,322.7539 Q607.6215,322.0313 606.8793,321.6992 Q606.1371,321.3477 605.3558,321.3477 Q603.6761,321.3477 602.8168,322.6953 Q601.9574,324.0234 601.9574,326.6406 Q601.9574,329.2578 602.8168,330.6055 Q603.6761,331.9336 605.3558,331.9336 Q606.1371,331.9336 606.8793,331.6016 Q607.6215,331.25 608.4027,330.5273 L608.4027,333.9258 Z " fill="#000000"/><text fill="#000000" font-family="sans-serif" font-size="17.5" lengthAdjust="spacing" textLength="55.5505" x="630.3168" y="332.9333">Parser</text><line style="stroke:#181818;stroke-width:0.625;" x1="450.625" x2="824.9341" y1="346.875" y2="346.875"/><text fill="#000000" font-family="sans-serif" font-size="17.5" lengthAdjust="spacing" textLength="171.5051" x="456.875" y="368.1189">-_displayHelp : bool</text><line style="stroke:#181818;stroke-width:0.625;" x1="450.625" x2="824.9341" y1="377.2461" y2="377.2461"/><text fill="#000000" font-family="sans-serif" font-size="17.5" lengthAdjust="spacing" textLength="226.4917" x="456.875" y="398.49">+Parser(int ac, char** av)</text><text fill="#000000" font-family="sans-serif" font-size="17.5" lengthAdjust="spacing" textLength="98.5315" x="456.875" y="418.8611">+~Parser()</text><text fill="#000000" font-family="sans-serif" font-size="17.5" lengthAdjust="spacing" textLength="323.4509" x="456.875" y="439.2322">+shouldDisplayHelp() : bool {query}</text><text fill="#000000" font-family="sans-serif" font-size="17.5" lengthAdjust="spacing" textLength="361.8091" x="456.875" y="459.6033">-parseArguments(int ac, char** av) : void</text></g><?plantuml-src RLB1Rjim33r7Ny6JcoOhkWqO1WJRWAmxD9UkQ8jT1zdYRAsof56q0Iz8ltsIF3Sk6bzCFZwAJteCZzfwIR85vJMyU_zMX6UaCZA4BJFficFSLSxUwxy8Sufr2WDw-307ITh717wSWqPRvC4ZEEB6YKOh16mz3z1YMo85OV0N0piWNJSCIXDMh9qL-RiyW-_bxuW4EBiK8ak3QpGUzcAntWUMhAi3UDAM4xmyXmt4M1p4nBwL590oVmoNiGwoUWDL8scr0jcVnzhJ_sACBtug7RoHGnwqWT8v4ncXSPrHtuwbF2mLOV-dGneEiTMdKxPKTorQ3YT6nPRUQPK5MjbYyB92k9F30yKWwnnrtw5LI2EoM4zPqZVBeZc1ZzGYLvzUa2yu7Hm7J6Gv5D6h8OhA-Ns55Wi8wJTXNtzStqIBLr3spOG5LfjD7wrmz6b4ThUaMyswnzMN0ZfRkYxELUcALyuuEZxBOkqyaeojdrzBZlGfAvBUPrVPNJNIMZHBvRhI8FIJk_50oYtBKtV8IbrWGjaMu3gU7lqew93VVromdMsGD4iRVI0qCcrVQBGVLsxaREkQiCwbqvn4ki70gC3D5bRy0m00?></g></svg>