<svg xmlns="http://www.w3.org/2000/svg" xmlns:xlink="http://www.w3.org/1999/xlink" contentStyleType="text/css" data-diagram-type="CLASS" height="537.5px" preserveAspectRatio="none" style="width:1787px;height:537px;background:#FFFFFF;" version="1.1" viewBox="0 0 1787 537" width="1787.5px" zoomAndPan="magnify"><?plantuml 1.2026.3?><defs/><g><!--cluster RayTracer--><g class="cluster" data-qualified-name="RayTracer" data-source-line="15" id="ent0002"><path d="M10.625,7.5 L111.8164,7.5 A4.6875,4.6875 0 0 1 114.9414,10.625 L123.6914,35.3711 L1765.625,35.3711 A3.125,3.125 0 0 1 1768.75,38.4961 L1768.75,515.625 A3.125,3.125 0 0 1 1765.625,518.75 L10.625,518.75 A3.125,3.125 0 0 1 7.5,515.625 L7.5,10.625 A3.125,3.125 0 0 1 10.625,7.5" fill="none" style="stroke:#000000;stroke-width:1.875;"/><line style="stroke:#000000;stroke-width:1.875;" x1="7.5" x2="123.6914" y1="35.3711" y2="35.3711"/><text fill="#000000" font-family="sans-serif" font-size="17.5" font-weight="700" lengthAdjust="spacing" textLength="99.9414" x="12.5" y="26.2439">RayTracer</text></g><!--class ILight--><g class="entity" data-qualified-name="RayTracer.ILight" data-source-line="16" id="ent0003"><rect fill="#F1F1F1" height="192.5977" rx="3.125" ry="3.125" style="stroke:#181818;stroke-width:0.625;" width="914.3616" x="27.5" y="306.25"/><ellipse cx="454.9512" cy="326.25" fill="#A9DCDF" rx="13.75" ry="13.75" style="stroke:#181818;stroke-width:1.25;"/><path d="M455.0879,320.4297 L453.6426,326.7773 L456.5527,326.7773 L455.0879,320.4297 Z M453.2324,317.6367 L456.9629,317.6367 L461.1621,333.125 L458.0957,333.125 L457.1387,329.2969 L453.0371,329.2969 L452.0996,333.125 L449.0527,333.125 L453.2324,317.6367 Z " fill="#000000"/><text fill="#000000" font-family="sans-serif" font-size="17.5" font-style="italic" lengthAdjust="spacing" textLength="48.8342" x="480.5762" y="332.3083">ILight</text><line style="stroke:#181818;stroke-width:0.625;" x1="28.75" x2="940.6116" y1="346.25" y2="346.25"/><text fill="#000000" font-family="sans-serif" font-size="17.5" lengthAdjust="spacing" textLength="77.1521" x="35" y="367.4939">+ILight()</text><text fill="#000000" font-family="sans-serif" font-size="17.5" lengthAdjust="spacing" textLength="198.1567" x="35" y="387.865">+ILight(const ILight &amp;)</text><text fill="#000000" font-family="sans-serif" font-size="17.5" lengthAdjust="spacing" textLength="91.8152" x="35" y="408.2361">+~ILight()</text><text fill="#000000" font-family="sans-serif" font-size="17.5" lengthAdjust="spacing" textLength="318.7512" x="35" y="428.6072">+operator=(const ILight &amp;) : ILight&amp;</text><text fill="#000000" font-family="sans-serif" font-size="17.5" font-style="italic" lengthAdjust="spacing" textLength="248.7598" x="35" y="448.9783">+isAmbient() : bool {query}</text><text fill="#000000" font-family="sans-serif" font-size="17.5" font-style="italic" lengthAdjust="spacing" textLength="285.7764" x="35" y="469.3494">+getAmbient() : double {query}</text><text fill="#000000" font-family="sans-serif" font-size="17.5" font-style="italic" lengthAdjust="spacing" textLength="899.3616" x="35" y="489.7205">+illuminate(const Math::Point3D&amp; point, Math::Vector3D&amp; direction, double&amp; intensity) : void {query}</text></g><!--class IMaterial--><g class="entity" data-qualified-name="RayTracer.IMaterial" data-source-line="26" id="ent0004"><rect fill="#F1F1F1" height="192.5977" rx="3.125" ry="3.125" style="stroke:#181818;stroke-width:0.625;" width="388.5925" x="290" y="51.25"/><ellipse cx="440.8563" cy="71.25" fill="#A9DCDF" rx="13.75" ry="13.75" style="stroke:#181818;stroke-width:1.25;"/><path d="M440.993,65.4297 L439.5477,71.7773 L442.4579,71.7773 L440.993,65.4297 Z M439.1376,62.6367 L442.868,62.6367 L447.0673,78.125 L444.0009,78.125 L443.0438,74.2969 L438.9423,74.2969 L438.0048,78.125 L434.9579,78.125 L439.1376,62.6367 Z " fill="#000000"/><text fill="#000000" font-family="sans-serif" font-size="17.5" font-style="italic" lengthAdjust="spacing" textLength="76.2549" x="466.4813" y="77.3083">IMaterial</text><line style="stroke:#181818;stroke-width:0.625;" x1="291.25" x2="677.3425" y1="91.25" y2="91.25"/><text fill="#000000" font-family="sans-serif" font-size="17.5" lengthAdjust="spacing" textLength="104.5728" x="297.5" y="112.4939">+IMaterial()</text><text fill="#000000" font-family="sans-serif" font-size="17.5" lengthAdjust="spacing" textLength="252.998" x="297.5" y="132.865">+IMaterial(const IMaterial &amp;)</text><text fill="#000000" font-family="sans-serif" font-size="17.5" lengthAdjust="spacing" textLength="119.2358" x="297.5" y="153.2361">+~IMaterial()</text><text fill="#000000" font-family="sans-serif" font-size="17.5" font-style="italic" lengthAdjust="spacing" textLength="243.8037" x="297.5" y="173.6072">+getColor() : Color {query}</text><text fill="#000000" font-family="sans-serif" font-size="17.5" lengthAdjust="spacing" textLength="373.5925" x="297.5" y="193.9783">+operator=(const IMaterial &amp;) : IMaterial&amp;</text><text fill="#000000" font-family="sans-serif" font-size="17.5" lengthAdjust="spacing" textLength="295.1758" x="297.5" y="214.3494">+getShininess() : double {query}</text><text fill="#000000" font-family="sans-serif" font-size="17.5" lengthAdjust="spacing" textLength="288.5449" x="297.5" y="234.7205">+getSpecular() : double {query}</text></g><!--class IPrimitive--><g class="entity" data-qualified-name="RayTracer.IPrimitive" data-source-line="36" id="ent0005"><rect fill="#F1F1F1" height="172.2266" rx="3.125" ry="3.125" style="stroke:#181818;stroke-width:0.625;" width="719.6655" x="1028.75" y="316.25"/><ellipse cx="1342.0068" cy="336.25" fill="#A9DCDF" rx="13.75" ry="13.75" style="stroke:#181818;stroke-width:1.25;"/><path d="M1342.1436,330.4297 L1340.6982,336.7773 L1343.6084,336.7773 L1342.1436,330.4297 Z M1340.2881,327.6367 L1344.0186,327.6367 L1348.2178,343.125 L1345.1514,343.125 L1344.1943,339.2969 L1340.0928,339.2969 L1339.1553,343.125 L1336.1084,343.125 L1340.2881,327.6367 Z " fill="#000000"/><text fill="#000000" font-family="sans-serif" font-size="17.5" font-style="italic" lengthAdjust="spacing" textLength="82.5269" x="1367.6318" y="342.3083">IPrimitive</text><line style="stroke:#181818;stroke-width:0.625;" x1="1030" x2="1747.1655" y1="356.25" y2="356.25"/><text fill="#000000" font-family="sans-serif" font-size="17.5" lengthAdjust="spacing" textLength="110.8447" x="1036.25" y="377.4939">+IPrimitive()</text><text fill="#000000" font-family="sans-serif" font-size="17.5" lengthAdjust="spacing" textLength="265.542" x="1036.25" y="397.865">+IPrimitive(const IPrimitive &amp;)</text><text fill="#000000" font-family="sans-serif" font-size="17.5" lengthAdjust="spacing" textLength="125.5078" x="1036.25" y="418.2361">+~IPrimitive()</text><text fill="#000000" font-family="sans-serif" font-size="17.5" lengthAdjust="spacing" textLength="386.1365" x="1036.25" y="438.6072">+operator=(const IPrimitive &amp;) : IPrimitive&amp;</text><text fill="#000000" font-family="sans-serif" font-size="17.5" font-style="italic" lengthAdjust="spacing" textLength="704.6655" x="1036.25" y="458.9783">+hits(const Ray&amp; ray, double tMin, double tMax, HitRecord&amp; rec) : bool {query}</text><text fill="#000000" font-family="sans-serif" font-size="17.5" lengthAdjust="spacing" textLength="426.0071" x="1036.25" y="479.3494">+boundingBox() : std::optional&lt;AABB&gt; {query}</text></g><?plantuml-src TLDDRzim33tNluAdT4C3T1yO1XZT06SxBC2w5UsmksnpDbTPqYIwg1TaltsI8pjgalh4HprIUi-akoTbX1KTr8RWzPjNcPipbHJE5SoMofvnNMbrHtyHKehIDJeqy2vDMg7kG_9zcfIaa0U3e2stEckfHi3Ey00TTYLQbqdynS0QB3KjGqqMAoQjil6xF8VlvM-VSN1-cMLATEYCg11knV33-i329ZiJfMCFUFTqM7yTM_c3iujT_E9b4dj1ZYVIOZpvbzAqGIjOsm-7JCXZl0YqpNJh5iWLNKceV0FFARMMiFdJenss1yG6EMNMkYybFiCbAVkEb62CxxWMtERvZIR5Rpylm8HW6RC_lKNQXlHiu3AsNu3deNB4GxZpGLEzlt6R7RldEw8b8QE14umUpZ2QCxCd9v_oduh_fAMse_GnIfKVkPuq3iPFSFJUjxfhIVdPSkuP9mF5ODLBOKyoJYc_iTGHqmD6wJEEslSuld5VCAa_A3bIbLO4MJC-dAcMsCKYF-iBlrt3z4U1hqabG3mkuGlnBLRQrfw9rQanB7MlQbBDIZ-EXZYkyroRC2f2NXN5QlKnTMSxB-1QjTvv5igldKKfGeLhoUnMSiSfciPYCnwTvWJIDtICDUXaeRF_?></g></svg>